<svg width="227" height="19" viewBox="0 0 227 19" fill="none" xmlns="http://www.w3.org/2000/svg">
<g id="logo">
<path id="Vector" d="M226.859 5.3173C226.192 4.69524 224.945 4.87656 224.053 4.63108C222.879 4.3884 220.792 4.30192 222.828 5.16109C222.861 5.2113 222.697 5.24478 222.384 5.2643C221.202 5.31172 219.972 5.20572 218.795 5.18899C216.016 5.1053 213.267 5.02998 210.44 5.03835C205.053 5.0523 199.798 4.75103 194.407 4.68966C187.495 4.4944 180.579 4.65898 173.66 4.56971C168.105 4.63666 162.557 4.71756 156.997 4.72035C155.638 4.77056 154.239 4.74266 152.862 4.74266C151.718 4.75382 150.571 4.94072 149.504 4.45534C148.349 3.96997 147.194 4.88493 145.999 4.79009C145.01 4.78172 143.992 4.96304 143.108 4.83472C142.454 4.76777 141.668 4.55577 141.047 4.81798C140.688 4.98535 140.39 5.36194 140.656 5.71062C140.894 6.01747 141.384 6.11789 141.765 6.15416C142.99 6.23226 144.327 6.1151 145.543 6.00073C145.908 5.984 146.388 5.9561 146.554 6.31874C146.637 6.59211 146.522 6.99101 146.369 7.28391C145.795 8.43877 144.97 9.52389 144.037 10.4863C143.523 10.8824 140.452 14.1294 140.018 13.0387C139.795 12.5756 140.087 11.4068 139.932 10.6397C139.64 9.23657 138.552 10.0567 137.676 10.6815C136.446 11.4933 134.575 13.1809 136.052 10.5923C136.684 9.09151 135.776 9.06083 134.819 9.88652C133.902 10.6202 132.814 11.0525 131.681 11.4487C131.236 11.5881 130.748 11.7276 130.282 11.6969C129.741 11.6774 129.301 11.298 128.894 11.0944C128.701 10.9995 128.516 10.9521 128.331 10.9995C127.945 11.1 127.653 11.5017 127.412 11.8308C126.702 12.849 125.887 14.0373 124.649 14.0987C123.741 14.0094 124.001 12.7681 124.137 12.054C124.558 10.2715 123.987 9.42347 122.682 10.7569C121.374 12.0986 120.244 13.6552 118.671 14.5617C117.473 15.2926 117.151 14.6399 117.607 13.4738C118.001 12.2716 118.807 11.3231 119.196 10.1599C119.453 9.23099 119.204 8.21282 119.85 7.41781C120.9 6.15416 125.638 2.05078 123.66 0.491448C121.058 -0.0943499 115.881 6.00631 114.203 8.02313C113.378 9.08872 112.636 10.1376 111.92 11.2311C111.432 12.0177 110.99 12.9299 110.267 13.5296C108.999 14.4446 107.528 15.3121 105.958 15.5018C103.254 15.4098 105.122 12.2967 105.231 10.7513C105.363 9.15009 104.026 8.84883 102.97 9.64942C101.231 10.7596 100.303 12.8239 98.674 14.0541C97.9934 14.5366 96.9 14.7765 96.3801 13.9592C95.8817 13.1921 96.155 11.9591 95.9728 11.0804C95.3377 8.69819 92.4837 10.7485 91.3609 11.6858C90.2729 12.6035 89.5761 13.5966 89.8924 11.7109C90.021 9.31746 88.2952 11.2171 87.4859 11.9061C86.3041 12.7346 84.9508 14.1852 83.3912 14.2214C82.3568 13.7807 84.1147 11.8308 84.4149 11.1892C85.2912 9.51831 83.9352 9.87537 83.292 10.8545C82.665 11.7304 78.9401 15.6246 78.6587 13.206C78.6641 12.3246 79.1196 11.4235 79.1196 10.5309C79.125 9.81958 78.589 9.49878 78.6587 9.21146C78.7713 8.7763 80.0441 7.80555 79.0312 7.61028C77.1312 7.90039 75.6252 9.60199 74.2692 10.9186C73.5832 11.6383 73.0687 12.5031 72.4282 13.259C71.509 14.3023 70.3246 15.1196 69.0785 15.6301C67.4706 16.2466 67.0767 14.3944 67.5992 13.1363C67.9315 12.146 68.5934 11.3036 69.1857 10.464C70.1075 9.20588 70.8712 7.80555 71.6269 6.40242C71.8654 5.86405 72.6292 4.64503 71.919 4.26566C71.3375 4.26845 70.8846 5.11646 70.5684 5.58789C69.8127 6.72043 69.1723 7.7665 68.5104 8.97435C68.028 9.79168 67.6475 10.6648 67.1865 11.4961C66.5112 12.782 65.3187 13.7305 64.0834 14.5171C63.0543 15.2675 60.2405 16.7041 61.1544 14.0903C61.7841 12.3552 63.7993 11.828 64.831 10.3412C65.5304 9.46531 65.2544 7.9506 64.0753 7.77486C62.9605 7.61307 61.9315 8.31324 61.0043 8.91856C59.241 10.1208 57.7162 11.7443 56.3468 13.3762C55.8403 13.962 55.3151 14.5673 54.5969 14.8602C53.5518 15.2703 52.3459 15.1085 51.2418 15.1782C49.0658 15.2508 47.0962 15.725 44.9658 15.8505C42.9479 15.9732 40.863 15.8505 38.8398 15.9007C35.5999 15.9844 32.2502 15.5939 29.0264 15.8421C22.335 15.9844 13.3336 16.0318 7.84539 15.8951C5.48718 15.8282 3.39159 16.4865 1.40855 15.3177C1.14057 15.1252 0.883308 14.8351 0.551015 14.8463C0.277677 14.8435 -0.0251389 15.1252 0.00165898 15.4572C0.124929 16.0318 0.816314 16.2494 1.32279 16.3861C3.80159 16.8715 7.10577 16.7236 9.7132 16.7515C9.84719 16.7404 9.77483 16.7292 9.48542 16.718C8.79939 16.6762 7.71944 16.7404 7.02002 16.6288C7.88023 16.5172 9.97046 16.5507 11.1415 16.5367C20.9335 16.5423 32.9309 16.4419 43.0899 16.626C46.571 16.4865 50.194 15.4739 53.6778 15.87C54.4897 15.9788 54.4522 17.1114 55.1704 17.4294C56.253 17.7557 57.2847 16.9133 58.1074 16.2438C58.705 15.7808 59.0882 15.2257 59.5009 15.3512C59.8734 15.5688 60.0449 16.0569 60.4603 16.2522C62.312 16.93 64.2388 15.2005 65.7797 14.1601C66.6988 13.5575 66.3237 15.2173 66.7631 15.8644C67.5858 17.2676 69.3974 16.3889 70.4398 15.6943C71.1419 15.2424 71.5546 14.8574 72.2165 15.0694C73.2107 15.566 74.288 15.3289 75.2232 14.7654C75.9307 14.4111 76.673 13.6914 77.0294 13.6496C77.367 13.6273 77.4287 14.0513 77.5788 14.3051C77.9298 15.234 79.0044 15.2535 79.7655 14.863C80.5774 14.545 81.2849 13.6998 81.5957 13.8644C81.7807 14.2382 81.7512 14.8156 82.1344 15.089C83.6753 15.9704 86.1407 13.6384 87.4377 12.7876C89.3993 11.2339 88.0674 13.9676 88.3488 14.8602C88.7427 15.7752 89.7369 14.6677 90.1175 14.2214C91.2644 12.8713 92.4301 11.1474 94.2068 10.9744C94.8794 10.994 95.0107 11.8113 95.0349 12.3831C95.0643 13.2088 95.1501 14.1154 95.6807 14.7821C96.2836 15.5241 97.2805 15.2898 98.1005 15.3177C100.022 15.6413 100.542 15.7138 102.193 14.4083C103.026 13.7723 103.173 14.2995 103.433 15.0973C103.771 16.1797 104.888 16.3331 106.003 16.1769C107.357 16.1155 108.541 14.9913 109.817 14.7096C110.154 14.7207 110.077 15.3372 110.237 15.6915C110.805 16.4279 111.652 14.665 111.955 14.2214C112.815 12.8099 114.27 11.7806 115.624 10.8043C116.114 10.5337 117.684 9.13336 117.944 10.0176C117.851 11.3622 114.605 15.5353 117.127 16.0402C117.877 16.0513 118.499 15.566 119.113 15.1224C120.445 14.2633 121.538 12.8713 122.736 11.8671C123.4 11.9647 121.86 14.6036 123.682 15.1364C124.925 15.4014 126.179 14.612 127.109 13.6579C127.508 13.2395 127.937 12.8267 128.508 12.7737C129.253 12.6984 129.995 12.994 130.738 12.7179C131.622 12.4891 132.713 11.6774 133.731 11.616C134.393 11.7722 133.289 13.2172 133.133 13.6524C132.884 14.1824 132.15 15.1782 132.463 15.6664C132.664 15.9621 133.104 15.725 133.364 15.5213C134.685 14.2214 135.896 12.8406 137.469 11.8169C139.493 10.3077 138.474 13.2311 138.975 14.2354C140.16 16.7097 145.431 8.83209 143.748 12.7318C143.298 13.9787 142.722 15.1754 142.716 16.4977C142.899 19.9539 146.388 18.336 147.886 16.7515C148.282 16.3777 148.765 15.9258 148.947 15.4293C148.979 15.195 148.58 15.4293 148.073 15.8728C147.47 16.4028 146.867 16.8798 146.122 17.2592C141.778 19.1505 144.946 12.3329 145.897 10.7569C146.452 9.69126 146.999 8.62845 147.553 7.55449C148.079 6.33548 149.113 5.59346 150.423 5.60462C167.076 5.14993 183.755 5.08019 200.428 5.49304C207.058 5.70226 213.725 5.75247 220.363 5.96726C222.657 5.88357 227.197 6.46937 226.88 5.34241L226.862 5.31172L226.859 5.3173ZM83.1849 12.6844L82.9544 12.9215C82.9383 12.9048 82.9222 12.888 82.9062 12.8741C82.9705 12.782 82.9303 12.5951 83.1849 12.6872V12.6844ZM70.346 8.07055C70.2549 8.44714 69.8717 8.95483 69.5662 9.15288C69.5823 8.83488 70.0271 8.15424 70.338 8.04545L70.346 8.07055ZM57.8636 12.1349C57.9011 12.1349 57.9386 12.1935 58.0029 12.252C57.9306 12.305 57.885 12.3385 57.8395 12.372C57.8153 12.3273 57.7698 12.2799 57.7725 12.2381C57.7751 12.199 57.8314 12.1321 57.8609 12.1349H57.8636ZM59.6831 14.0541C59.0588 14.5729 58.4103 15.2898 57.6546 15.7529C57.2365 16.0513 56.8372 16.4279 56.3361 16.4754C55.5992 16.6176 55.2374 16.2773 55.7492 15.5967C56.4272 14.8491 57.6653 14.8853 58.5094 14.3944C58.6943 14.3442 60.4335 13.4097 59.7367 14.015L59.6831 14.0568V14.0541ZM59.7796 13.2786C59.3589 13.5129 55.3097 15.4098 56.9846 13.7472C58.7506 12.0149 60.2727 9.98974 62.5612 8.94925C63.2151 8.66193 64.1262 8.17376 64.7747 8.63961C65.3402 9.13336 64.8632 10.0176 64.3513 10.5225C63.9413 10.9549 63.5126 11.3008 63.4563 11.2032C63.4241 11.1474 63.4536 11.0832 63.4643 11.0023C63.81 9.80284 62.8024 9.91721 62.2959 10.6871C61.6581 11.7053 60.94 12.7318 59.8466 13.2423L59.7796 13.2786ZM78.0799 13.3567C77.9995 13.3009 78.0906 13.0833 78.104 12.9857C78.1629 12.8183 78.0531 12.7179 77.9673 12.6035C77.9807 12.2827 78.2648 12.6565 78.2407 12.849C78.2514 13.0024 78.1656 13.2116 78.1093 13.3399L78.0799 13.3595V13.3567ZM78.2862 10.0455C78.2326 10.8238 77.9325 11.5268 77.418 12.1405C77.1312 12.7262 73.0847 15.9649 73.4036 14.015C73.7895 12.6872 75.0758 11.8782 76.0566 11.0274C76.4774 10.7959 78.2299 8.87672 78.2862 9.97858V10.0455ZM82.5122 14.0568C82.4211 14.1433 82.3166 14.1768 82.2094 14.0903C82.2041 14.0596 82.1987 14.0289 82.1933 13.9983C82.2925 13.9815 82.389 13.9648 82.4881 13.9564C82.4935 13.9564 82.523 14.0457 82.5096 14.0596L82.5122 14.0568ZM95.4877 11.1139C95.4636 11.1139 95.4395 11.1195 95.4127 11.1223C95.3323 11.0414 95.2519 10.9605 95.1715 10.8796C95.1876 10.8489 95.201 10.821 95.2171 10.7903C95.3189 10.8182 95.4288 10.8322 95.5172 10.8852C95.5413 10.8991 95.4985 11.0358 95.4877 11.1139ZM101.338 12.3608C101.863 11.9591 103.846 9.66336 104.401 10.0399C104.02 10.927 103.021 11.4347 102.3 12.0261C102.139 12.0902 100.727 13.0749 101.289 12.4082L101.338 12.3608ZM104.076 11.6523C103.538 12.3246 102.857 12.9578 102.206 13.5352C102.029 13.7249 99.3868 15.3484 99.8906 14.4195C100.236 13.9369 100.831 13.6691 101.314 13.3483C102.096 12.8825 102.948 12.16 103.798 11.6328C103.924 11.5574 104.294 11.3873 104.111 11.616L104.079 11.6551L104.076 11.6523ZM115.758 10.1487C115.728 10.0651 115.701 9.98137 115.672 9.89768C115.707 9.88095 115.742 9.867 115.774 9.85026C115.811 9.92558 115.851 10.0009 115.889 10.0762C115.843 10.1013 115.801 10.1236 115.755 10.1487H115.758ZM117.848 8.57545C117.132 8.97714 116.366 9.32025 115.629 9.78052C115.08 9.94789 111.363 13.4515 112.89 11.2255C114.871 8.16261 117.068 5.40378 119.914 3.20843C120.71 2.53058 121.495 1.99499 122.412 1.52636C122.733 1.3562 123.245 1.07725 123.556 1.26135C124.751 2.34926 119.081 8.13471 117.915 8.5364L117.848 8.57545Z" fill="black"/>
<path id="Vector_2" d="M85.5218 4.161C85.2438 4.19555 84.9996 3.92432 84.9121 3.71194C84.9079 3.62622 85.049 3.56736 85.0984 3.47653C85.1563 3.38825 85.1619 3.24112 85.2494 3.236C85.4357 3.26543 85.5684 3.44582 85.7152 3.54945C85.9297 3.73241 85.862 4.11495 85.5571 4.15845L85.5218 4.161Z" fill="white"/>
</g>
</svg>
